<svg width="1920" height="1080" viewBox="0 0 1920 1080" fill="none" xmlns="http://www.w3.org/2000/svg">
<g clip-path="url(#clip0_1_2)">
<rect width="1920" height="1080" fill="white"/>
<rect width="1920" height="1080" fill="#FFE1A8"/>
<path d="M235.831 644.796C67.5149 646.522 -57.3395 825.906 -98.7273 915.383L-50.8472 1036.79L1944.84 1516.71C2134.57 1191.09 2417.68 494.048 2032.23 310.906C1550.41 81.9783 1440.59 556.947 1425.67 652.543C1410.75 748.139 1304.73 1006.91 1068.16 1051.25C878.903 1086.73 710.165 978.568 649.453 920.053C581.711 827.582 404.146 643.07 235.831 644.796Z" fill="#FFEAC4" stroke="#E26D5C" stroke-opacity="0.2" stroke-width="2"/>
<path d="M862.662 47.4246C1005.89 -41.0085 1020.11 -259.102 1009.33 -357.095L905.609 -436.31L-1051.06 183.781C-1045.29 560.608 -927.588 1303.68 -502.945 1261.36C27.8585 1208.46 -123.486 745.046 -160.099 655.487C-196.712 565.928 -239.62 289.595 -59.9734 129.409C83.7437 1.25989 284.097 6.6951 366.31 25.4313C472.084 69.6096 719.44 135.858 862.662 47.4246Z" fill="#FFEAC4" stroke="#E26D5C" stroke-opacity="0.2" stroke-width="2"/>
<rect x="-105" y="889" width="610" height="424" fill="#FFEAC3"/>
</g>
<defs>
<clipPath id="clip0_1_2">
<rect width="1920" height="1080" fill="white"/>
</clipPath>
</defs>
</svg>
